<?xml version="1.0" encoding="UTF-8"?>
<svg xmlns="http://www.w3.org/2000/svg" viewBox="0 0 180 180" shape-rendering="geometricPrecision">
  <defs>
    <linearGradient id="bg" x1="0" y1="0" x2="1" y2="1">
      <stop offset="0" stop-color="#0e0e10"/>
      <stop offset="1" stop-color="#1c1c22"/>
    </linearGradient>
  </defs>
  <rect width="180" height="180" rx="40" fill="url(#bg)"/>
  <path d="M118.7 60.7c-5-7.3-13.4-11.4-23.6-11.4-14.7 0-25.4 8.1-25.4 19.7 0 10.8 8.2 16.5 24.8 19.9l7.7 1.6c8.3 1.9 12.4 4.7 12.4 9.6 0 5.9-6 9.7-15.1 9.7-8.7 0-15-3.6-18.5-10.6l-12 7c5.3 10.9 15.9 16.7 30.9 16.7 16.8 0 27.4-8.4 27.4-21.3 0-10.8-7.3-16.9-22.5-20l-8.3-1.7c-9.5-2-13.5-4.5-13.5-9.3 0-5.2 5.4-8.9 13.7-8.9 7.5 0 12.9 3 16.3 9z" fill="#e8a13a"/>
</svg>
